<svg width="24" height="24" viewBox="0 0 24 24" fill="none" xmlns="http://www.w3.org/2000/svg">
<path d="M8.93135 2.54771C6.90947 3.24911 5.1658 4.58041 3.95647 6.34605C2.74713 8.11169 2.13587 10.2186 2.21247 12.3573C2.28906 14.496 3.04948 16.5538 4.38203 18.2284C5.71458 19.903 7.54902 21.1062 9.61589 21.6611C11.2916 22.0935 13.0472 22.1125 14.7318 21.7165C16.2579 21.3737 17.6688 20.6404 18.8264 19.5885C20.0312 18.4603 20.9057 17.025 21.3559 15.437C21.8452 13.7101 21.9323 11.8941 21.6104 10.1283H12.2007V14.0316H17.6502C17.5413 14.6541 17.3079 15.2483 16.964 15.7786C16.6201 16.3088 16.1727 16.7642 15.6487 17.1175C14.9833 17.5577 14.2331 17.8539 13.4465 17.9871C12.6575 18.1338 11.8483 18.1338 11.0593 17.9871C10.2596 17.8217 9.50317 17.4917 8.83807 17.018C7.7696 16.2616 6.96732 15.1871 6.54573 13.9478C6.117 12.6852 6.117 11.3165 6.54573 10.054C6.84583 9.16898 7.34194 8.36321 7.99702 7.69679C8.74668 6.92016 9.69578 6.36501 10.7402 6.09227C11.7846 5.81953 12.8839 5.83972 13.9176 6.15064C14.7251 6.39852 15.4635 6.83161 16.074 7.41539C16.6884 6.80409 17.3018 6.19122 17.9142 5.57677C18.2304 5.24635 18.575 4.93175 18.8865 4.59343C17.9546 3.72625 16.8608 3.05148 15.6677 2.60778C13.495 1.81888 11.1177 1.79768 8.93135 2.54771Z" fill="white"/>
<path d="M8.93156 2.5475C11.1178 1.79696 13.4951 1.81761 15.6679 2.60599C16.8612 3.0527 17.9545 3.73073 18.8851 4.60112C18.5689 4.93944 18.2353 5.25563 17.9128 5.58446C17.2994 6.19681 16.6865 6.80705 16.0742 7.41518C15.4637 6.8314 14.7253 6.39831 13.9178 6.15043C12.8845 5.83842 11.7852 5.81706 10.7405 6.08869C9.69581 6.36031 8.74613 6.91444 7.99565 7.69026C7.34056 8.35668 6.84446 9.16245 6.54436 10.0474L3.26709 7.51003C4.44015 5.18379 6.47124 3.4044 8.93156 2.5475Z" fill="#E33629"/>
<path d="M2.39769 10.0239C2.57384 9.15093 2.86628 8.3055 3.2672 7.51025L6.54447 10.054C6.11574 11.3165 6.11574 12.6853 6.54447 13.9478C5.45257 14.791 4.36015 15.6383 3.2672 16.4899C2.26355 14.4921 1.95745 12.2159 2.39769 10.0239Z" fill="#F8BD00"/>
<path d="M12.2009 10.1265H21.6106C21.9325 11.8923 21.8454 13.7083 21.3561 15.4352C20.9059 17.0232 20.0314 18.4585 18.8266 19.5867C17.7689 18.7615 16.7065 17.9426 15.6489 17.1173C16.1733 16.7636 16.6208 16.3077 16.9647 15.7769C17.3086 15.2461 17.5418 14.6513 17.6504 14.0282H12.2009C12.1993 12.7287 12.2009 11.4276 12.2009 10.1265Z" fill="#587DBD"/>
<path d="M3.26562 16.4899C4.35857 15.6467 5.451 14.7993 6.54289 13.9478C6.96533 15.1875 7.76875 16.2621 8.8384 17.0179C9.50557 17.4895 10.2637 17.8168 11.0643 17.9791C11.8533 18.1258 12.6626 18.1258 13.4516 17.9791C14.2382 17.846 14.9883 17.5498 15.6538 17.1096C16.7114 17.9349 17.7738 18.7538 18.8315 19.579C17.674 20.6315 16.2631 21.3653 14.7368 21.7085C13.0522 22.1046 11.2966 22.0856 9.62096 21.6532C8.29567 21.2993 7.05776 20.6755 5.98482 19.8209C4.84918 18.9193 3.92164 17.783 3.26562 16.4899Z" fill="#319F43"/>
</svg>
